<svg xmlns="http://www.w3.org/2000/svg" viewBox="0 0 800 500" width="800" height="500">
  <defs>
    <linearGradient id="bg" x1="0%" y1="0%" x2="100%" y2="100%">
      <stop offset="0%" style="stop-color:#0B1121"/>
      <stop offset="50%" style="stop-color:#111827"/>
      <stop offset="100%" style="stop-color:#0F172A"/>
    </linearGradient>
    <linearGradient id="card" x1="0%" y1="0%" x2="100%" y2="100%">
      <stop offset="0%" style="stop-color:#162035"/>
      <stop offset="100%" style="stop-color:#0f1a2e"/>
    </linearGradient>
    <pattern id="grid" width="40" height="40" patternUnits="userSpaceOnUse">
      <path d="M 40 0 L 0 0 0 40" fill="none" stroke="#2FB6D8" stroke-width="0.15" opacity="0.2"/>
    </pattern>
    <linearGradient id="scoreBar" x1="0%" y1="0%" x2="100%" y2="0%">
      <stop offset="0%" style="stop-color:#ef4444"/>
      <stop offset="50%" style="stop-color:#f59e0b"/>
      <stop offset="100%" style="stop-color:#22c55e"/>
    </linearGradient>
    <linearGradient id="btnBlue" x1="0%" y1="0%" x2="100%" y2="100%">
      <stop offset="0%" style="stop-color:#2563eb"/>
      <stop offset="100%" style="stop-color:#1d4ed8"/>
    </linearGradient>
  </defs>

  <rect width="800" height="500" fill="url(#bg)"/>
  <rect width="800" height="500" fill="url(#grid)"/>

  <!-- Header -->
  <text x="400" y="34" text-anchor="middle" font-family="'Courier New', monospace" font-size="10" fill="#2FB6D8" opacity="0.5" letter-spacing="3">KREDIT · PERSONALIZED CREDIT BUILDING ROBO-ADVISER</text>

  <!-- ── SCORE HERO BAR — top center, replaces gauge ── -->
  <rect x="180" y="50" width="440" height="76" rx="12" fill="url(#card)" stroke="#2FB6D8" stroke-width="0.75"/>
  <!-- Score large -->
  <text x="250" y="80" text-anchor="middle" font-family="Georgia, serif" font-size="30" font-weight="700" fill="#2563eb">610</text>
  <text x="250" y="97" text-anchor="middle" font-family="system-ui, sans-serif" font-size="9" fill="#94a3b8">Current Score</text>
  <!-- Progress bar -->
  <rect x="300" y="72" width="240" height="8" rx="4" fill="#1e3a5f"/>
  <rect x="300" y="72" width="108" height="8" rx="4" fill="url(#scoreBar)"/>
  <circle cx="408" cy="76" r="5" fill="#2563eb" stroke="white" stroke-width="1.5"/>
  <!-- Bar labels -->
  <text x="300" y="92" font-family="'Courier New', monospace" font-size="9" fill="#ef4444">584</text>
  <text x="380" y="92" text-anchor="middle" font-family="'Courier New', monospace" font-size="9" fill="#2FB6D8">+88 pts ↑</text>
  <text x="540" y="92" text-anchor="end" font-family="'Courier New', monospace" font-size="9" fill="#22c55e">708 target</text>

  <!-- ── 4 STEP CARDS in a 2×2 grid ── -->
  <!-- Card width: 370, gap: 20, left margin: 20 -->

  <!-- ── CARD 1: Assess (top left) ── -->
  <rect x="20" y="146" width="370" height="152" rx="10" fill="url(#card)" stroke="#22c55e" stroke-width="1"/>
  <!-- Tab -->
  <rect x="20" y="146" width="370" height="38" rx="10" fill="#0d2a1a"/>
  <rect x="20" y="166" width="370" height="18" fill="#0d2a1a"/>
  <rect x="32" y="156" width="22" height="22" rx="11" fill="#22c55e" opacity="0.2"/>
  <text x="43" y="172" text-anchor="middle" font-family="system-ui, sans-serif" font-size="13" font-weight="700" fill="#22c55e">1</text>
  <text x="72" y="168" font-family="system-ui, sans-serif" font-size="13" font-weight="700" fill="#22c55e">Assess</text>
  <text x="72" y="181" font-family="system-ui, sans-serif" font-size="9" fill="#4ade80" opacity="0.7">TruScore Analysis</text>
  <rect x="310" y="154" width="68" height="18" rx="9" fill="#22c55e" opacity="0.1"/>
  <text x="344" y="166" text-anchor="middle" font-family="system-ui, sans-serif" font-size="8" fill="#22c55e">✓ COMPLETE</text>

  <!-- Content: 3 data rows -->
  <text x="36" y="206" font-family="system-ui, sans-serif" font-size="10" fill="#94a3b8">Credit data points analyzed</text>
  <rect x="36" y="212" width="300" height="6" rx="3" fill="#1e3a5f"/>
  <rect x="36" y="212" width="280" height="6" rx="3" fill="#22c55e" opacity="0.5"/>

  <text x="36" y="234" font-family="system-ui, sans-serif" font-size="10" fill="#94a3b8">Bureaus pulled</text>
  <rect x="36" y="240" width="300" height="6" rx="3" fill="#1e3a5f"/>
  <rect x="36" y="240" width="230" height="6" rx="3" fill="#22c55e" opacity="0.35"/>

  <text x="36" y="262" font-family="system-ui, sans-serif" font-size="10" fill="#94a3b8">Target score set: <tspan fill="#22c55e" font-weight="700">708</tspan></text>
  <text x="350" y="262" text-anchor="end" font-family="'Courier New', monospace" font-size="10" fill="#64748b">7,300 pts · 3 bureaus</text>

  <text x="36" y="284" font-family="'Courier New', monospace" font-size="9" fill="#475569">Starting score: <tspan fill="#ef4444" font-weight="600">584</tspan>  →  Target: <tspan fill="#22c55e" font-weight="600">708</tspan>  →  Gap: <tspan fill="#f59e0b">124 pts</tspan></text>

  <!-- ── CARD 2: Repair (top right) ── -->
  <rect x="410" y="146" width="370" height="152" rx="10" fill="url(#card)" stroke="#f59e0b" stroke-width="1"/>
  <rect x="410" y="146" width="370" height="38" rx="10" fill="#2a1f08"/>
  <rect x="410" y="166" width="370" height="18" fill="#2a1f08"/>
  <rect x="422" y="156" width="22" height="22" rx="11" fill="#f59e0b" opacity="0.2"/>
  <text x="433" y="172" text-anchor="middle" font-family="system-ui, sans-serif" font-size="13" font-weight="700" fill="#f59e0b">2</text>
  <text x="462" y="168" font-family="system-ui, sans-serif" font-size="13" font-weight="700" fill="#f59e0b">Repair</text>
  <text x="462" y="181" font-family="system-ui, sans-serif" font-size="9" fill="#fbbf24" opacity="0.7">Automated Dispute Engine</text>
  <rect x="688" y="154" width="80" height="18" rx="9" fill="#f59e0b" opacity="0.08"/>
  <text x="728" y="166" text-anchor="middle" font-family="system-ui, sans-serif" font-size="8" fill="#f59e0b">→ IN PROGRESS</text>

  <!-- 3 clean dispute rows — full width, no overlap -->
  <rect x="422" y="196" width="346" height="22" rx="4" fill="#f59e0b" opacity="0.05" stroke="#f59e0b" stroke-width="0.5"/>
  <text x="434" y="211" font-family="'Courier New', monospace" font-size="9" fill="#94a3b8">Collections · $340</text>
  <rect x="720" y="200" width="38" height="14" rx="7" fill="#22c55e" opacity="0.15"/>
  <text x="739" y="211" text-anchor="middle" font-family="system-ui, sans-serif" font-size="8" fill="#22c55e">SENT</text>

  <rect x="422" y="224" width="346" height="22" rx="4" fill="#f59e0b" opacity="0.05" stroke="#f59e0b" stroke-width="0.5"/>
  <text x="434" y="239" font-family="'Courier New', monospace" font-size="9" fill="#94a3b8">Late Payment · Chase</text>
  <rect x="720" y="228" width="38" height="14" rx="7" fill="#22c55e" opacity="0.15"/>
  <text x="739" y="239" text-anchor="middle" font-family="system-ui, sans-serif" font-size="8" fill="#22c55e">SENT</text>

  <rect x="422" y="252" width="346" height="22" rx="4" fill="#f59e0b" opacity="0.05" stroke="#f59e0b" stroke-width="0.5"/>
  <text x="434" y="267" font-family="'Courier New', monospace" font-size="9" fill="#94a3b8">Hard Inquiries · 3 items</text>
  <rect x="720" y="256" width="38" height="14" rx="7" fill="#2FB6D8" opacity="0.15"/>
  <text x="739" y="267" text-anchor="middle" font-family="system-ui, sans-serif" font-size="8" fill="#2FB6D8">PEND</text>

  <text x="434" y="288" font-family="system-ui, sans-serif" font-size="9" fill="#64748b">3 disputes filed · $0 cost (typically $750+)</text>

  <!-- ── CARD 3: Toolkit (bottom left, ACTIVE) ── -->
  <rect x="20" y="316" width="370" height="164" rx="10" fill="url(#card)" stroke="#2FB6D8" stroke-width="1.5"/>
  <rect x="20" y="316" width="370" height="38" rx="10" fill="#0c2233"/>
  <rect x="20" y="336" width="370" height="18" fill="#0c2233"/>
  <rect x="32" y="326" width="22" height="22" rx="11" fill="#2FB6D8" opacity="0.2"/>
  <text x="43" y="342" text-anchor="middle" font-family="system-ui, sans-serif" font-size="13" font-weight="700" fill="#2FB6D8">3</text>
  <text x="72" y="338" font-family="system-ui, sans-serif" font-size="13" font-weight="700" fill="#2FB6D8">Toolkit</text>
  <text x="72" y="351" font-family="system-ui, sans-serif" font-size="9" fill="#7dd3fc" opacity="0.7">15+ Building Tools</text>
  <rect x="296" y="324" width="82" height="18" rx="9" fill="#2FB6D8" opacity="0.12"/>
  <text x="337" y="336" text-anchor="middle" font-family="system-ui, sans-serif" font-size="8" fill="#2FB6D8">→ ACTIVE NOW</text>

  <!-- CTA button -->
  <rect x="36" y="366" width="340" height="36" rx="8" fill="url(#btnBlue)"/>
  <text x="206" y="389" text-anchor="middle" font-family="system-ui, sans-serif" font-size="11" font-weight="600" fill="white">Balance Your Payments · Your Next Move</text>

  <!-- Tool pills row -->
  <rect x="36" y="412" width="78" height="20" rx="4" fill="#2FB6D8" opacity="0.08" stroke="#2FB6D8" stroke-width="0.75"/>
  <text x="75" y="425" text-anchor="middle" font-family="system-ui, sans-serif" font-size="8" fill="#2FB6D8">Auth User</text>
  <rect x="120" y="412" width="88" height="20" rx="4" fill="#2FB6D8" opacity="0.08" stroke="#2FB6D8" stroke-width="0.75"/>
  <text x="164" y="425" text-anchor="middle" font-family="system-ui, sans-serif" font-size="8" fill="#2FB6D8">Builder Loan</text>
  <rect x="214" y="412" width="82" height="20" rx="4" fill="#2FB6D8" opacity="0.05" stroke="#2FB6D8" stroke-width="0.5"/>
  <text x="255" y="425" text-anchor="middle" font-family="system-ui, sans-serif" font-size="8" fill="#64748b">Rent Report</text>
  <rect x="302" y="412" width="72" height="20" rx="4" fill="#2FB6D8" opacity="0.05" stroke="#2FB6D8" stroke-width="0.5"/>
  <text x="338" y="425" text-anchor="middle" font-family="system-ui, sans-serif" font-size="8" fill="#64748b">+12 more</text>

  <text x="36" y="460" font-family="system-ui, sans-serif" font-size="9" fill="#64748b">7 available · 4 active tools</text>

  <!-- ── CARD 4: Capital (bottom right, dimmed) ── -->
  <rect x="410" y="316" width="370" height="164" rx="10" fill="url(#card)" stroke="#2FB6D8" stroke-width="0.5" opacity="0.4"/>
  <rect x="410" y="316" width="370" height="38" rx="10" fill="#0f1a2e" opacity="0.6"/>
  <rect x="410" y="336" width="370" height="18" fill="#0f1a2e" opacity="0.6"/>
  <rect x="422" y="326" width="22" height="22" rx="11" fill="#2FB6D8" opacity="0.07"/>
  <text x="433" y="342" text-anchor="middle" font-family="system-ui, sans-serif" font-size="13" font-weight="700" fill="#475569">4</text>
  <text x="462" y="338" font-family="system-ui, sans-serif" font-size="13" font-weight="700" fill="#475569">Capital</text>
  <text x="462" y="351" font-family="system-ui, sans-serif" font-size="9" fill="#374151">Access Financing</text>
  <rect x="680" y="324" width="88" height="18" rx="9" fill="#64748b" opacity="0.06"/>
  <text x="724" y="336" text-anchor="middle" font-family="system-ui, sans-serif" font-size="8" fill="#475569">UNLOCKS AT 708</text>

  <text x="426" y="382" font-family="system-ui, sans-serif" font-size="10" fill="#374151">Use improved credit to access capital</text>
  <text x="426" y="398" font-family="system-ui, sans-serif" font-size="10" fill="#374151">for your goals — mortgage, auto, cards.</text>

  <rect x="426" y="416" width="100" height="20" rx="4" fill="#64748b" opacity="0.06" stroke="#374151" stroke-width="0.5"/>
  <text x="476" y="429" text-anchor="middle" font-family="system-ui, sans-serif" font-size="9" fill="#475569">Mortgage</text>
  <rect x="532" y="416" width="80" height="20" rx="4" fill="#64748b" opacity="0.06" stroke="#374151" stroke-width="0.5"/>
  <text x="572" y="429" text-anchor="middle" font-family="system-ui, sans-serif" font-size="9" fill="#475569">Auto Loan</text>
  <rect x="618" y="416" width="80" height="20" rx="4" fill="#64748b" opacity="0.06" stroke="#374151" stroke-width="0.5"/>
  <text x="658" y="429" text-anchor="middle" font-family="system-ui, sans-serif" font-size="9" fill="#475569">Credit Card</text>

  <text x="426" y="460" font-family="'Courier New', monospace" font-size="9" fill="#374151">36 pts away · Target: 708</text>
</svg>
