<svg xmlns="http://www.w3.org/2000/svg" viewBox="0 0 900 540" width="900" height="540">
  <defs>
    <clipPath id="windowClip">
      <rect x="0" y="0" width="900" height="540" rx="12"/>
    </clipPath>
    <filter id="shadow">
      <feDropShadow dx="0" dy="1" stdDeviation="2" flood-opacity="0.08"/>
    </filter>
  </defs>

  <rect width="900" height="540" rx="12" fill="#f8fafc"/>
  <rect width="900" height="540" rx="12" fill="#f1f5f9" clip-path="url(#windowClip)"/>

  <!-- Browser chrome -->
  <rect x="0" y="0" width="900" height="42" fill="#ffffff" clip-path="url(#windowClip)"/>
  <circle cx="24" cy="21" r="5" fill="#ef4444" opacity="0.7"/>
  <circle cx="42" cy="21" r="5" fill="#f59e0b" opacity="0.7"/>
  <circle cx="60" cy="21" r="5" fill="#22c55e" opacity="0.7"/>
  <rect x="88" y="10" width="420" height="22" rx="5" fill="#f1f5f9"/>
  <text x="298" y="25" text-anchor="middle" font-family="system-ui, sans-serif" font-size="10" fill="#94a3b8">app.partyops.io/admin/orders</text>
  <line x1="0" y1="42" x2="900" y2="42" stroke="#e2e8f0" stroke-width="1"/>

  <!-- TOP NAV - tenant tabs -->
  <rect x="0" y="42" width="900" height="50" fill="#ffffff"/>
  <line x1="0" y1="92" x2="900" y2="92" stroke="#e2e8f0" stroke-width="1"/>

  <rect x="16" y="57" width="150" height="30" rx="6" fill="#0e7490"/>
  <text x="91" y="76" text-anchor="middle" font-family="system-ui, sans-serif" font-size="11" font-weight="700" fill="#ffffff">Skyline Party Rentals</text>

  <rect x="178" y="57" width="130" height="30" rx="6" fill="#f1f5f9"/>
  <text x="243" y="76" text-anchor="middle" font-family="system-ui, sans-serif" font-size="11" fill="#64748b">Celebration Co.</text>

  <rect x="322" y="57" width="148" height="30" rx="6" fill="#f1f5f9"/>
  <text x="396" y="76" text-anchor="middle" font-family="system-ui, sans-serif" font-size="11" fill="#64748b">Grand Event Supply</text>

  <rect x="484" y="57" width="110" height="30" rx="6" fill="#f1f5f9"/>
  <text x="539" y="76" text-anchor="middle" font-family="system-ui, sans-serif" font-size="11" fill="#64748b">Metro Linen Co.</text>

  <!-- Week selector -->
  <rect x="704" y="60" width="180" height="24" rx="5" fill="#f1f5f9" stroke="#e2e8f0" stroke-width="1"/>
  <text x="718" y="76" font-family="system-ui, sans-serif" font-size="10" fill="#64748b">Week: Feb 11 – Feb 24  ▾</text>

  <!-- SUB TABS - more space below tenant tabs -->
  <rect x="0" y="92" width="900" height="44" fill="#ffffff"/>
  <line x1="0" y1="136" x2="900" y2="136" stroke="#e2e8f0" stroke-width="1"/>
  <text x="24" y="119" font-family="system-ui, sans-serif" font-size="11" fill="#94a3b8">Pending Orders</text>
  <text x="132" y="119" font-family="system-ui, sans-serif" font-size="11" font-weight="700" fill="#0e7490">Feb 11th Orders</text>
  <line x1="132" y1="135" x2="242" y2="135" stroke="#0e7490" stroke-width="2"/>
  <text x="256" y="119" font-family="system-ui, sans-serif" font-size="11" fill="#94a3b8">Feb 11th Inventory</text>
  <text x="386" y="119" font-family="system-ui, sans-serif" font-size="11" fill="#94a3b8">Weeks</text>
  <text x="440" y="119" font-family="system-ui, sans-serif" font-size="11" fill="#94a3b8">Bulk Send</text>
  <text x="510" y="119" font-family="system-ui, sans-serif" font-size="11" fill="#94a3b8">Customers</text>
  <rect x="768" y="106" width="116" height="26" rx="6" fill="#0e7490"/>
  <text x="826" y="123" text-anchor="middle" font-family="system-ui, sans-serif" font-size="10" font-weight="700" fill="#ffffff">+ Create Order</text>

  <!-- MAIN CONTENT -->
  <rect x="0" y="136" width="900" height="404" fill="#f8fafc"/>

  <!-- Filter bar -->
  <rect x="16" y="148" width="868" height="36" rx="6" fill="#ffffff" filter="url(#shadow)"/>
  <text x="32" y="171" font-family="system-ui, sans-serif" font-size="12" font-weight="700" fill="#0e7490">Orders 16</text>
  <rect x="116" y="156" width="130" height="20" rx="4" fill="#f1f5f9" stroke="#e2e8f0" stroke-width="1"/>
  <text x="124" y="170" font-family="system-ui, sans-serif" font-size="10" fill="#94a3b8">Filter by Status  ▾</text>
  <text x="260" y="171" font-family="system-ui, sans-serif" font-size="10" fill="#64748b">☐ Include Unapproved</text>
  <rect x="744" y="156" width="124" height="20" rx="4" fill="#fee2e2" stroke="#ef4444" stroke-width="0.75"/>
  <text x="806" y="170" text-anchor="middle" font-family="system-ui, sans-serif" font-size="10" fill="#dc2626" font-weight="600">Reset Statuses</text>

  <!-- TABLE HEADER -->
  <rect x="16" y="192" width="868" height="28" fill="#f1f5f9"/>
  <line x1="16" y1="192" x2="884" y2="192" stroke="#e2e8f0" stroke-width="1"/>
  <text x="32" y="210" font-family="system-ui, sans-serif" font-size="10" fill="#94a3b8" letter-spacing="0.5">CUSTOMER</text>
  <text x="230" y="210" font-family="system-ui, sans-serif" font-size="10" fill="#94a3b8" letter-spacing="0.5">CLOTHS</text>
  <text x="310" y="210" font-family="system-ui, sans-serif" font-size="10" fill="#94a3b8" letter-spacing="0.5">TABLES</text>
  <text x="390" y="210" font-family="system-ui, sans-serif" font-size="10" fill="#94a3b8" letter-spacing="0.5">CHAIRS</text>
  <text x="470" y="210" font-family="system-ui, sans-serif" font-size="10" fill="#94a3b8" letter-spacing="0.5">DECOR</text>
  <text x="556" y="210" font-family="system-ui, sans-serif" font-size="10" fill="#94a3b8" letter-spacing="0.5">STATUS</text>
  <text x="666" y="210" font-family="system-ui, sans-serif" font-size="10" fill="#94a3b8" letter-spacing="0.5">DATE</text>
  <text x="760" y="210" font-family="system-ui, sans-serif" font-size="10" fill="#94a3b8" letter-spacing="0.5">ACTIONS</text>

  <!-- ROW 1 -->
  <rect x="16" y="220" width="868" height="36" fill="#ffffff"/>
  <line x1="16" y1="256" x2="884" y2="256" stroke="#f1f5f9" stroke-width="1"/>
  <text x="32" y="242" font-family="system-ui, sans-serif" font-size="11" fill="#1e293b">Sarah Goldstein</text>
  <text x="230" y="242" font-family="'Courier New', monospace" font-size="11" font-weight="600" fill="#334155">16</text>
  <text x="310" y="242" font-family="'Courier New', monospace" font-size="11" fill="#94a3b8">—</text>
  <text x="390" y="242" font-family="'Courier New', monospace" font-size="11" fill="#94a3b8">—</text>
  <text x="470" y="242" font-family="'Courier New', monospace" font-size="11" font-weight="600" fill="#334155">3</text>
  <rect x="548" y="230" width="66" height="18" rx="9" fill="#dcfce7"/>
  <text x="581" y="243" text-anchor="middle" dominant-baseline="middle" font-family="system-ui, sans-serif" font-size="10" font-weight="600" fill="#16a34a">Returned</text>
  <text x="666" y="242" font-family="system-ui, sans-serif" font-size="10" fill="#64748b">Feb 11</text>
  <rect x="756" y="230" width="44" height="18" rx="4" fill="#f1f5f9" stroke="#e2e8f0" stroke-width="1"/>
  <text x="778" y="239" text-anchor="middle" dominant-baseline="middle" font-family="system-ui, sans-serif" font-size="10" fill="#64748b">Edit</text>
  <rect x="806" y="230" width="62" height="18" rx="4" fill="#f1f5f9" stroke="#e2e8f0" stroke-width="1"/>
  <text x="837" y="239" text-anchor="middle" dominant-baseline="middle" font-family="system-ui, sans-serif" font-size="10" fill="#0e7490">✉ Email</text>

  <!-- ROW 2 highlighted -->
  <rect x="16" y="256" width="868" height="36" fill="#f0fdfa"/>
  <line x1="16" y1="292" x2="884" y2="292" stroke="#ccfbf1" stroke-width="1"/>
  <text x="32" y="278" font-family="system-ui, sans-serif" font-size="11" font-weight="600" fill="#0e7490">Marcus Thompson</text>
  <text x="230" y="278" font-family="'Courier New', monospace" font-size="11" font-weight="600" fill="#334155">24</text>
  <text x="310" y="278" font-family="'Courier New', monospace" font-size="11" font-weight="600" fill="#334155">10</text>
  <text x="390" y="278" font-family="'Courier New', monospace" font-size="11" font-weight="600" fill="#334155">80</text>
  <text x="470" y="278" font-family="'Courier New', monospace" font-size="11" fill="#94a3b8">—</text>
  <rect x="548" y="266" width="50" height="18" rx="9" fill="#dbeafe"/>
  <text x="573" y="275" text-anchor="middle" dominant-baseline="middle" font-family="system-ui, sans-serif" font-size="10" font-weight="600" fill="#2563eb">Lent</text>
  <text x="666" y="278" font-family="system-ui, sans-serif" font-size="10" fill="#64748b">Feb 11</text>
  <rect x="756" y="266" width="44" height="18" rx="4" fill="#f0fdfa" stroke="#0e7490" stroke-width="1"/>
  <text x="778" y="275" text-anchor="middle" dominant-baseline="middle" font-family="system-ui, sans-serif" font-size="10" fill="#0e7490">Edit</text>
  <rect x="806" y="266" width="62" height="18" rx="4" fill="#f1f5f9" stroke="#e2e8f0" stroke-width="1"/>
  <text x="837" y="275" text-anchor="middle" dominant-baseline="middle" font-family="system-ui, sans-serif" font-size="10" fill="#0e7490">✉ Email</text>

  <!-- ROW 3 -->
  <rect x="16" y="292" width="868" height="36" fill="#ffffff"/>
  <line x1="16" y1="328" x2="884" y2="328" stroke="#f1f5f9" stroke-width="1"/>
  <text x="32" y="314" font-family="system-ui, sans-serif" font-size="11" fill="#1e293b">Priya Sharma</text>
  <text x="230" y="314" font-family="'Courier New', monospace" font-size="11" font-weight="600" fill="#334155">20</text>
  <text x="310" y="314" font-family="'Courier New', monospace" font-size="11" font-weight="600" fill="#334155">6</text>
  <text x="390" y="314" font-family="'Courier New', monospace" font-size="11" font-weight="600" fill="#334155">48</text>
  <text x="470" y="314" font-family="'Courier New', monospace" font-size="11" font-weight="600" fill="#334155">5</text>
  <rect x="548" y="302" width="72" height="18" rx="9" fill="#fef9c3"/>
  <text x="584" y="311" text-anchor="middle" dominant-baseline="middle" font-family="system-ui, sans-serif" font-size="10" font-weight="600" fill="#ca8a04">Reserved</text>
  <text x="666" y="314" font-family="system-ui, sans-serif" font-size="10" fill="#64748b">Feb 18</text>
  <rect x="756" y="302" width="44" height="18" rx="4" fill="#f1f5f9" stroke="#e2e8f0" stroke-width="1"/>
  <text x="778" y="311" text-anchor="middle" dominant-baseline="middle" font-family="system-ui, sans-serif" font-size="10" fill="#64748b">Edit</text>
  <rect x="806" y="302" width="62" height="18" rx="4" fill="#f1f5f9" stroke="#e2e8f0" stroke-width="1"/>
  <text x="837" y="311" text-anchor="middle" dominant-baseline="middle" font-family="system-ui, sans-serif" font-size="10" fill="#0e7490">✉ Email</text>

  <!-- ROW 4 overdue -->
  <rect x="16" y="328" width="868" height="36" fill="#fff8f8"/>
  <line x1="16" y1="364" x2="884" y2="364" stroke="#fee2e2" stroke-width="1"/>
  <text x="32" y="350" font-family="system-ui, sans-serif" font-size="11" fill="#dc2626" font-weight="600">James O'Brien</text>
  <text x="230" y="350" font-family="'Courier New', monospace" font-size="11" font-weight="600" fill="#334155">28</text>
  <text x="310" y="350" font-family="'Courier New', monospace" font-size="11" font-weight="600" fill="#334155">12</text>
  <text x="390" y="350" font-family="'Courier New', monospace" font-size="11" font-weight="600" fill="#334155">100</text>
  <text x="470" y="350" font-family="'Courier New', monospace" font-size="11" fill="#94a3b8">—</text>
  <rect x="548" y="338" width="60" height="18" rx="9" fill="#fee2e2"/>
  <text x="578" y="347" text-anchor="middle" dominant-baseline="middle" font-family="system-ui, sans-serif" font-size="10" font-weight="600" fill="#dc2626">Overdue</text>
  <text x="666" y="350" font-family="system-ui, sans-serif" font-size="10" fill="#dc2626">Feb 4 ⚠</text>
  <rect x="756" y="338" width="44" height="18" rx="4" fill="#fee2e2" stroke="#ef4444" stroke-width="1"/>
  <text x="778" y="347" text-anchor="middle" dominant-baseline="middle" font-family="system-ui, sans-serif" font-size="10" fill="#dc2626">Edit</text>
  <rect x="806" y="338" width="62" height="18" rx="4" fill="#f1f5f9" stroke="#e2e8f0" stroke-width="1"/>
  <text x="837" y="347" text-anchor="middle" dominant-baseline="middle" font-family="system-ui, sans-serif" font-size="10" fill="#0e7490">✉ Email</text>

  <!-- ROW 5 -->
  <rect x="16" y="364" width="868" height="36" fill="#ffffff"/>
  <line x1="16" y1="400" x2="884" y2="400" stroke="#f1f5f9" stroke-width="1"/>
  <text x="32" y="386" font-family="system-ui, sans-serif" font-size="11" fill="#1e293b">Rachel Nguyen</text>
  <text x="230" y="386" font-family="'Courier New', monospace" font-size="11" font-weight="600" fill="#334155">12</text>
  <text x="310" y="386" font-family="'Courier New', monospace" font-size="11" fill="#94a3b8">—</text>
  <text x="390" y="386" font-family="'Courier New', monospace" font-size="11" font-weight="600" fill="#334155">40</text>
  <text x="470" y="386" font-family="'Courier New', monospace" font-size="11" font-weight="600" fill="#334155">2</text>
  <rect x="548" y="374" width="66" height="18" rx="9" fill="#dcfce7"/>
  <text x="581" y="383" text-anchor="middle" dominant-baseline="middle" font-family="system-ui, sans-serif" font-size="10" font-weight="600" fill="#16a34a">Returned</text>
  <text x="666" y="386" font-family="system-ui, sans-serif" font-size="10" fill="#64748b">Feb 11</text>
  <rect x="756" y="374" width="44" height="18" rx="4" fill="#f1f5f9" stroke="#e2e8f0" stroke-width="1"/>
  <text x="778" y="383" text-anchor="middle" dominant-baseline="middle" font-family="system-ui, sans-serif" font-size="10" fill="#64748b">Edit</text>
  <rect x="806" y="374" width="62" height="18" rx="4" fill="#f1f5f9" stroke="#e2e8f0" stroke-width="1"/>
  <text x="837" y="383" text-anchor="middle" dominant-baseline="middle" font-family="system-ui, sans-serif" font-size="10" fill="#0e7490">✉ Email</text>

  <!-- ROW 6 -->
  <rect x="16" y="400" width="868" height="36" fill="#ffffff"/>
  <line x1="16" y1="436" x2="884" y2="436" stroke="#f1f5f9" stroke-width="1"/>
  <text x="32" y="422" font-family="system-ui, sans-serif" font-size="11" fill="#1e293b">David Kowalski</text>
  <text x="230" y="422" font-family="'Courier New', monospace" font-size="11" font-weight="600" fill="#334155">8</text>
  <text x="310" y="422" font-family="'Courier New', monospace" font-size="11" font-weight="600" fill="#334155">4</text>
  <text x="390" y="422" font-family="'Courier New', monospace" font-size="11" font-weight="600" fill="#334155">32</text>
  <text x="470" y="422" font-family="'Courier New', monospace" font-size="11" font-weight="600" fill="#334155">4</text>
  <rect x="548" y="410" width="50" height="18" rx="9" fill="#dbeafe"/>
  <text x="573" y="419" text-anchor="middle" dominant-baseline="middle" font-family="system-ui, sans-serif" font-size="10" font-weight="600" fill="#2563eb">Lent</text>
  <text x="666" y="422" font-family="system-ui, sans-serif" font-size="10" fill="#64748b">Feb 18</text>
  <rect x="756" y="410" width="44" height="18" rx="4" fill="#f1f5f9" stroke="#e2e8f0" stroke-width="1"/>
  <text x="778" y="419" text-anchor="middle" dominant-baseline="middle" font-family="system-ui, sans-serif" font-size="10" fill="#64748b">Edit</text>
  <rect x="806" y="410" width="62" height="18" rx="4" fill="#f1f5f9" stroke="#e2e8f0" stroke-width="1"/>
  <text x="837" y="419" text-anchor="middle" dominant-baseline="middle" font-family="system-ui, sans-serif" font-size="10" fill="#0e7490">✉ Email</text>

  <!-- Modification log -->
  <rect x="0" y="462" width="900" height="78" fill="#ffffff"/>
  <line x1="0" y1="462" x2="900" y2="462" stroke="#e2e8f0" stroke-width="1"/>
  <text x="16" y="480" font-family="system-ui, sans-serif" font-size="9" fill="#94a3b8" letter-spacing="1">MODIFICATION LOG</text>

  <!-- Log row 1 -->
  <text x="16" y="500" font-family="'Courier New', monospace" font-size="9" fill="#94a3b8">14:22:01</text>
  <rect x="76" y="489" width="84" height="18" rx="4" fill="#dcfce7"/>
  <text x="118" y="498" text-anchor="middle" dominant-baseline="middle" font-family="system-ui, sans-serif" font-size="8" font-weight="600" fill="#16a34a">Reserved → Lent</text>
  <text x="166" y="500" font-family="system-ui, sans-serif" font-size="9" fill="#64748b">Marcus Thompson · by Admin · Skyline Party Rentals</text>

  <text x="500" y="500" font-family="'Courier New', monospace" font-size="9" fill="#94a3b8">14:19:44</text>
  <rect x="560" y="489" width="66" height="18" rx="4" fill="#fee2e2"/>
  <text x="593" y="498" text-anchor="middle" dominant-baseline="middle" font-family="system-ui, sans-serif" font-size="8" font-weight="600" fill="#dc2626">Lent → Overdue</text>
  <text x="632" y="500" font-family="system-ui, sans-serif" font-size="9" fill="#64748b">James O'Brien · auto-flagged · 7 days past due</text>

  <!-- Log row 2 -->
  <text x="16" y="522" font-family="'Courier New', monospace" font-size="9" fill="#94a3b8">14:18:30</text>
  <rect x="76" y="511" width="64" height="18" rx="4" fill="#dbeafe"/>
  <text x="108" y="520" text-anchor="middle" dominant-baseline="middle" font-family="system-ui, sans-serif" font-size="8" font-weight="600" fill="#2563eb">New Order</text>
  <text x="146" y="522" font-family="system-ui, sans-serif" font-size="9" fill="#64748b">Priya Sharma · 6 tables · 48 chairs · 20 cloths · Celebration Co.</text>
</svg>
