<svg xmlns="http://www.w3.org/2000/svg" viewBox="0 0 760 520" width="760" height="520">
  <defs>
    <clipPath id="windowClip">
      <rect x="0" y="0" width="760" height="520" rx="12"/>
    </clipPath>
    <filter id="shadow">
      <feDropShadow dx="0" dy="1" stdDeviation="3" flood-opacity="0.08"/>
    </filter>
    <filter id="redglow">
      <feDropShadow dx="0" dy="0" stdDeviation="4" flood-color="#ef4444" flood-opacity="0.3"/>
    </filter>
  </defs>

  <rect width="760" height="520" rx="12" fill="#f8fafc"/>
  <rect width="760" height="520" rx="12" fill="#f1f5f9" clip-path="url(#windowClip)"/>

  <!-- Browser chrome -->
  <rect x="0" y="0" width="760" height="42" fill="#ffffff" clip-path="url(#windowClip)"/>
  <circle cx="24" cy="21" r="5" fill="#ef4444" opacity="0.7"/>
  <circle cx="42" cy="21" r="5" fill="#f59e0b" opacity="0.7"/>
  <circle cx="60" cy="21" r="5" fill="#22c55e" opacity="0.7"/>
  <rect x="88" y="10" width="400" height="22" rx="5" fill="#f1f5f9"/>
  <text x="288" y="25" text-anchor="middle" font-family="system-ui, sans-serif" font-size="10" fill="#94a3b8">ops.waterworks.gov/compliance/samples</text>
  <line x1="0" y1="42" x2="760" y2="42" stroke="#e2e8f0" stroke-width="1"/>

  <!-- TOP NAV -->
  <rect x="0" y="42" width="760" height="44" fill="#0c4a6e"/>
  <text x="24" y="68" font-family="system-ui, sans-serif" font-size="13" font-weight="700" fill="#ffffff">WaterOps</text>
  <text x="110" y="68" font-family="system-ui, sans-serif" font-size="11" fill="#7dd3fc">Samples</text>
  <text x="174" y="68" font-family="system-ui, sans-serif" font-size="11" fill="#7dd3fc">Assets</text>
  <text x="226" y="68" font-family="system-ui, sans-serif" font-size="11" fill="#7dd3fc">Locations</text>
  <text x="296" y="68" font-family="system-ui, sans-serif" font-size="11" fill="#7dd3fc">Reports</text>
  <rect x="596" y="54" width="144" height="24" rx="5" fill="#0284c7"/>
  <text x="668" y="70" text-anchor="middle" font-family="system-ui, sans-serif" font-size="10" font-weight="700" fill="#ffffff">+ New Sample</text>
  <line x1="0" y1="86" x2="760" y2="86" stroke="#0284c7" stroke-width="1"/>

  <!-- SUB NAV -->
  <rect x="0" y="86" width="760" height="36" fill="#ffffff"/>
  <line x1="0" y1="122" x2="760" y2="122" stroke="#e2e8f0" stroke-width="1"/>
  <text x="20" y="108" font-family="system-ui, sans-serif" font-size="11" fill="#94a3b8">All Samples</text>
  <text x="100" y="108" font-family="system-ui, sans-serif" font-size="11" font-weight="700" fill="#0c4a6e">Active Lifecycle</text>
  <line x1="100" y1="121" x2="196" y2="121" stroke="#0c4a6e" stroke-width="2"/>
  <text x="210" y="108" font-family="system-ui, sans-serif" font-size="11" fill="#94a3b8">Overdue</text>
  <rect x="252" y="96" width="20" height="16" rx="8" fill="#ef4444"/>
  <text x="262" y="108" text-anchor="middle" dominant-baseline="middle" font-family="system-ui, sans-serif" font-size="9" font-weight="700" fill="#ffffff">3</text>
  <text x="282" y="108" font-family="system-ui, sans-serif" font-size="11" fill="#94a3b8">Audit Export</text>
  <text x="356" y="108" font-family="system-ui, sans-serif" font-size="11" fill="#94a3b8">Compliance Report</text>

  <!-- MAIN LAYOUT: left panel + right panel -->
  <rect x="0" y="122" width="760" height="398" fill="#f8fafc"/>

  <!-- ── LEFT: Sample tracker table ── -->
  <rect x="12" y="132" width="464" height="376" rx="8" fill="#ffffff" filter="url(#shadow)"/>

  <!-- Table header -->
  <rect x="12" y="132" width="464" height="32" rx="8" fill="#f8fafc"/>
  <rect x="12" y="148" width="464" height="16" fill="#f8fafc"/>
  <line x1="12" y1="164" x2="476" y2="164" stroke="#e2e8f0" stroke-width="1"/>
  <text x="28" y="152" font-family="system-ui, sans-serif" font-size="9" fill="#94a3b8" letter-spacing="0.5">SAMPLE ID</text>
  <text x="120" y="152" font-family="system-ui, sans-serif" font-size="9" fill="#94a3b8" letter-spacing="0.5">LOCATION</text>
  <text x="220" y="152" font-family="system-ui, sans-serif" font-size="9" fill="#94a3b8" letter-spacing="0.5">STATE</text>
  <text x="310" y="152" font-family="system-ui, sans-serif" font-size="9" fill="#94a3b8" letter-spacing="0.5">DEADLINE</text>
  <text x="400" y="152" font-family="system-ui, sans-serif" font-size="9" fill="#94a3b8" letter-spacing="0.5">ASSIGNED</text>

  <!-- Row 1 - tested/active -->
  <rect x="12" y="164" width="464" height="38" fill="#f0f9ff"/>
  <line x1="12" y1="202" x2="476" y2="202" stroke="#e0f2fe" stroke-width="1"/>
  <text x="28" y="187" font-family="'Courier New', monospace" font-size="10" font-weight="600" fill="#0c4a6e">WA-2291</text>
  <text x="120" y="187" font-family="system-ui, sans-serif" font-size="10" fill="#334155">Site A · Zone 3</text>
  <rect x="212" y="175" width="56" height="16" rx="8" fill="#dbeafe"/>
  <text x="240" y="183" text-anchor="middle" dominant-baseline="middle" font-family="system-ui, sans-serif" font-size="9" font-weight="600" fill="#2563eb">Tested</text>
  <text x="310" y="187" font-family="system-ui, sans-serif" font-size="10" fill="#0284c7">Feb 28</text>
  <text x="400" y="187" font-family="system-ui, sans-serif" font-size="10" fill="#334155">R. Chen</text>

  <!-- Row 2 - collected -->
  <rect x="12" y="202" width="464" height="38" fill="#ffffff"/>
  <line x1="12" y1="240" x2="476" y2="240" stroke="#f1f5f9" stroke-width="1"/>
  <text x="28" y="225" font-family="'Courier New', monospace" font-size="10" font-weight="600" fill="#334155">WA-2290</text>
  <text x="120" y="225" font-family="system-ui, sans-serif" font-size="10" fill="#334155">Site B · Zone 1</text>
  <rect x="212" y="213" width="68" height="16" rx="8" fill="#dcfce7"/>
  <text x="246" y="221" text-anchor="middle" dominant-baseline="middle" font-family="system-ui, sans-serif" font-size="9" font-weight="600" fill="#16a34a">Collected</text>
  <text x="310" y="225" font-family="system-ui, sans-serif" font-size="10" fill="#334155">Mar 3</text>
  <text x="400" y="225" font-family="system-ui, sans-serif" font-size="10" fill="#334155">J. Martinez</text>

  <!-- Row 3 - overdue -->
  <rect x="12" y="240" width="464" height="38" fill="#fff8f8"/>
  <line x1="12" y1="278" x2="476" y2="278" stroke="#fee2e2" stroke-width="1"/>
  <text x="28" y="263" font-family="'Courier New', monospace" font-size="10" font-weight="600" fill="#dc2626">WA-2289</text>
  <text x="120" y="263" font-family="system-ui, sans-serif" font-size="10" fill="#334155">Site C · Zone 2</text>
  <rect x="212" y="251" width="60" height="16" rx="8" fill="#fee2e2"/>
  <text x="242" y="259" text-anchor="middle" dominant-baseline="middle" font-family="system-ui, sans-serif" font-size="9" font-weight="600" fill="#dc2626">Overdue</text>
  <text x="310" y="263" font-family="system-ui, sans-serif" font-size="10" fill="#dc2626" font-weight="600">Feb 23 ⚠</text>
  <text x="400" y="263" font-family="system-ui, sans-serif" font-size="10" fill="#334155">T. Williams</text>

  <!-- Row 4 - scheduled -->
  <rect x="12" y="278" width="464" height="38" fill="#ffffff"/>
  <line x1="12" y1="316" x2="476" y2="316" stroke="#f1f5f9" stroke-width="1"/>
  <text x="28" y="301" font-family="'Courier New', monospace" font-size="10" font-weight="600" fill="#334155">WA-2288</text>
  <text x="120" y="301" font-family="system-ui, sans-serif" font-size="10" fill="#334155">Site A · Zone 1</text>
  <rect x="212" y="289" width="68" height="16" rx="8" fill="#fef9c3"/>
  <text x="246" y="297" text-anchor="middle" dominant-baseline="middle" font-family="system-ui, sans-serif" font-size="9" font-weight="600" fill="#ca8a04">Scheduled</text>
  <text x="310" y="301" font-family="system-ui, sans-serif" font-size="10" fill="#334155">Mar 7</text>
  <text x="400" y="301" font-family="system-ui, sans-serif" font-size="10" fill="#334155">J. Martinez</text>

  <!-- Row 5 - reviewed -->
  <rect x="12" y="316" width="464" height="38" fill="#ffffff"/>
  <line x1="12" y1="354" x2="476" y2="354" stroke="#f1f5f9" stroke-width="1"/>
  <text x="28" y="339" font-family="'Courier New', monospace" font-size="10" font-weight="600" fill="#334155">WA-2287</text>
  <text x="120" y="339" font-family="system-ui, sans-serif" font-size="10" fill="#334155">Site D · Zone 4</text>
  <rect x="212" y="327" width="62" height="16" rx="8" fill="#f3e8ff"/>
  <text x="243" y="335" text-anchor="middle" dominant-baseline="middle" font-family="system-ui, sans-serif" font-size="9" font-weight="600" fill="#7c3aed">Reviewed</text>
  <text x="310" y="339" font-family="system-ui, sans-serif" font-size="10" fill="#334155">Mar 1</text>
  <text x="400" y="339" font-family="system-ui, sans-serif" font-size="10" fill="#334155">S. Patel</text>

  <!-- Row 6 - reported/complete -->
  <rect x="12" y="354" width="464" height="38" fill="#ffffff"/>
  <line x1="12" y1="392" x2="476" y2="392" stroke="#f1f5f9" stroke-width="1"/>
  <text x="28" y="377" font-family="'Courier New', monospace" font-size="10" font-weight="600" fill="#334155">WA-2286</text>
  <text x="120" y="377" font-family="system-ui, sans-serif" font-size="10" fill="#334155">Site B · Zone 3</text>
  <rect x="212" y="365" width="60" height="16" rx="8" fill="#f0fdf4" stroke="#86efac" stroke-width="1"/>
  <text x="242" y="373" text-anchor="middle" dominant-baseline="middle" font-family="system-ui, sans-serif" font-size="9" font-weight="600" fill="#15803d">Reported</text>
  <text x="310" y="377" font-family="system-ui, sans-serif" font-size="10" fill="#64748b">Feb 18 ✓</text>
  <text x="400" y="377" font-family="system-ui, sans-serif" font-size="10" fill="#334155">R. Chen</text>

  <!-- Immutable audit log at bottom of left panel -->
  <rect x="12" y="400" width="464" height="108" rx="0" fill="#f8fafc"/>
  <rect x="12" y="396" width="464" height="4" fill="#ffffff"/>
  <line x1="12" y1="400" x2="476" y2="400" stroke="#e2e8f0" stroke-width="1"/>
  <text x="28" y="416" font-family="system-ui, sans-serif" font-size="9" fill="#94a3b8" letter-spacing="1">IMMUTABLE AUDIT LOG</text>
  <line x1="12" y1="422" x2="476" y2="422" stroke="#e2e8f0" stroke-width="0.5"/>

  <text x="28" y="438" font-family="'Courier New', monospace" font-size="9" fill="#94a3b8">08:14:22</text>
  <rect x="80" y="428" width="72" height="14" rx="3" fill="#dbeafe"/>
  <text x="116" y="435" text-anchor="middle" dominant-baseline="middle" font-family="system-ui, sans-serif" font-size="8" font-weight="600" fill="#2563eb">Sched→Collected</text>
  <text x="158" y="438" font-family="system-ui, sans-serif" font-size="9" fill="#64748b">WA-2291 · Site A · J. Martinez</text>

  <text x="28" y="456" font-family="'Courier New', monospace" font-size="9" fill="#94a3b8">09:02:57</text>
  <rect x="80" y="446" width="66" height="14" rx="3" fill="#dbeafe"/>
  <text x="113" y="453" text-anchor="middle" dominant-baseline="middle" font-family="system-ui, sans-serif" font-size="8" font-weight="600" fill="#2563eb">Collected→Tested</text>
  <text x="152" y="456" font-family="system-ui, sans-serif" font-size="9" fill="#64748b">WA-2291 · Lab results uploaded · R. Chen</text>

  <text x="28" y="474" font-family="'Courier New', monospace" font-size="9" fill="#94a3b8">11:45:03</text>
  <rect x="80" y="464" width="74" height="14" rx="3" fill="#fee2e2"/>
  <text x="117" y="471" text-anchor="middle" dominant-baseline="middle" font-family="system-ui, sans-serif" font-size="8" font-weight="600" fill="#dc2626">DEADLINE ALERT</text>
  <text x="160" y="474" font-family="system-ui, sans-serif" font-size="9" fill="#64748b">WA-2289 · review required within 48h</text>

  <text x="28" y="492" font-family="'Courier New', monospace" font-size="9" fill="#94a3b8">13:30:11</text>
  <rect x="80" y="482" width="68" height="14" rx="3" fill="#f3e8ff"/>
  <text x="114" y="489" text-anchor="middle" dominant-baseline="middle" font-family="system-ui, sans-serif" font-size="8" font-weight="600" fill="#7c3aed">Tested→Reviewed</text>
  <text x="154" y="492" font-family="system-ui, sans-serif" font-size="9" fill="#64748b">WA-2287 · Supervisor S. Patel approved</text>

  <!-- ── RIGHT PANEL ── -->

  <!-- Compliance Status card -->
  <rect x="484" y="132" width="264" height="140" rx="8" fill="#ffffff" filter="url(#shadow)"/>
  <text x="500" y="154" font-family="system-ui, sans-serif" font-size="10" fill="#64748b" letter-spacing="1">COMPLIANCE STATUS</text>
  <line x1="484" y1="162" x2="748" y2="162" stroke="#e2e8f0" stroke-width="1"/>

  <!-- Pass/Fail/Review blocks -->
  <rect x="496" y="170" width="68" height="60" rx="6" fill="#dcfce7"/>
  <text x="530" y="194" text-anchor="middle" font-family="system-ui, sans-serif" font-size="18" font-weight="700" fill="#16a34a">24</text>
  <text x="530" y="210" text-anchor="middle" font-family="system-ui, sans-serif" font-size="10" fill="#16a34a">Pass</text>
  <text x="530" y="224" text-anchor="middle" font-family="system-ui, sans-serif" font-size="9" fill="#64748b">samples</text>

  <rect x="572" y="170" width="68" height="60" rx="6" fill="#fee2e2"/>
  <text x="606" y="194" text-anchor="middle" font-family="system-ui, sans-serif" font-size="18" font-weight="700" fill="#dc2626">3</text>
  <text x="606" y="210" text-anchor="middle" font-family="system-ui, sans-serif" font-size="10" fill="#dc2626">Fail</text>
  <text x="606" y="224" text-anchor="middle" font-family="system-ui, sans-serif" font-size="9" fill="#64748b">samples</text>

  <rect x="648" y="170" width="84" height="60" rx="6" fill="#fef9c3"/>
  <text x="690" y="194" text-anchor="middle" font-family="system-ui, sans-serif" font-size="18" font-weight="700" fill="#ca8a04">7</text>
  <text x="690" y="210" text-anchor="middle" font-family="system-ui, sans-serif" font-size="10" fill="#ca8a04">Needs Review</text>
  <text x="690" y="224" text-anchor="middle" font-family="system-ui, sans-serif" font-size="9" fill="#64748b">samples</text>

  <!-- Deadline monitor card -->
  <rect x="484" y="282" width="264" height="110" rx="8" fill="#ffffff" filter="url(#shadow)"/>
  <text x="500" y="304" font-family="system-ui, sans-serif" font-size="10" fill="#64748b" letter-spacing="1">DEADLINE MONITOR</text>
  <line x1="484" y1="312" x2="748" y2="312" stroke="#e2e8f0" stroke-width="1"/>

  <text x="500" y="332" font-family="system-ui, sans-serif" font-size="10" fill="#334155">WA-2289 · Site C</text>
  <rect x="660" y="321" width="72" height="16" rx="8" fill="#fee2e2" filter="url(#redglow)"/>
  <text x="696" y="329" text-anchor="middle" dominant-baseline="middle" font-family="system-ui, sans-serif" font-size="9" font-weight="700" fill="#dc2626">2 days overdue</text>

  <text x="500" y="352" font-family="system-ui, sans-serif" font-size="10" fill="#334155">WA-2288 · Site A</text>
  <rect x="660" y="341" width="72" height="16" rx="8" fill="#fef9c3"/>
  <text x="696" y="349" text-anchor="middle" dominant-baseline="middle" font-family="system-ui, sans-serif" font-size="9" font-weight="600" fill="#ca8a04">due in 4 days</text>

  <text x="500" y="372" font-family="system-ui, sans-serif" font-size="10" fill="#334155">WA-2290 · Site B</text>
  <rect x="660" y="361" width="72" height="16" rx="8" fill="#f0fdf4"/>
  <text x="696" y="369" text-anchor="middle" dominant-baseline="middle" font-family="system-ui, sans-serif" font-size="9" font-weight="600" fill="#15803d">due in 6 days</text>

  <!-- Audit export card -->
  <rect x="484" y="402" width="264" height="106" rx="8" fill="#0c4a6e"/>

  <text x="500" y="424" font-family="system-ui, sans-serif" font-size="10" font-weight="700" fill="#7dd3fc" letter-spacing="1">AUDIT EXPORT</text>
  <line x1="484" y1="432" x2="748" y2="432" stroke="#0284c7" stroke-width="1"/>

  <text x="500" y="452" font-family="system-ui, sans-serif" font-size="10" fill="#bae6fd">Records: immutable · timestamped</text>
  <text x="500" y="470" font-family="system-ui, sans-serif" font-size="10" fill="#bae6fd">Scope: all transitions + approvals</text>
  <text x="500" y="488" font-family="system-ui, sans-serif" font-size="10" fill="#bae6fd">Format: PDF · CSV · JSON</text>

  <rect x="592" y="492" width="144" height="10" rx="0" fill="none"/>
  <rect x="496" y="494" width="236" height="1" rx="0" fill="#0284c7" opacity="0.4"/>
  <rect x="496" y="496" width="144" height="1" rx="0" fill="#0284c7" opacity="0.2"/>
</svg>
